:SAMPLES-PER-SECOND 30
:FULLY-SPECIFIED
:DEGREES
206
root  25.3819 34.3022 -35.8874 26.0143 -78.2724 -18.6538
RightUpLeg  -16.4792 1.5388 4.92786
RightLeg  14.1803 2.31877 0.429773
RightFoot  3.16322 0.00988981 0.163769
RightToes  -16.5334 -0.0629885 -0.148382
Spine  -0.90415 -1.84571 3.76254
Spine1  -1.8323 -3.61756 7.86733
HEad  -72.6166 18.9414 4.25309
LeftShoulder1  -1.94126e-019 -3.10601e-018 -2.51263e-017
LeftArm  -2.29928 14.9965 -80.7527
LeftForeArm  33.3587 -37.849 -6.66417
LeftHand  -0.38423 -2.45512 5.898
RightShoulder  -4.96962e-017 0 -2.36833e-017
RightArm  -59.6454 -22.3985 55.1651
RightForeArm  42.0284 23.0731 2.72061
RightHand  -0.203623 -2.20223 -7.10938
LeftUpLeg  -28.5076 25.0467 -1.17548
LeftLeg  69.6777 6.48782 14.2191
LeftFoot  15.3293 -0.565305 4.36031
LeftToes  -32.2122 1.87998e-006 4.79886e-008
207
root  24.5509 34.4641 -35.0801 26.1567 -80.7218 -18.702
RightUpLeg  -13.7009 2.10544 3.12393
RightLeg  11.345 3.84868 0.518353
RightFoot  3.50392 0.00730666 0.274579
RightToes  -19.089 -0.0764389 -0.169458
Spine  -0.896093 -1.92927 3.60562
Spine1  -1.79892 -3.76032 7.57289
HEad  -72.3072 20.7673 3.68124
LeftShoulder1  -1.94126e-019 -3.10601e-018 -2.51263e-017
LeftArm  -3.81741 14.9151 -78.8589
LeftForeArm  33.7044 -41.9087 -7.8434
LeftHand  -0.431516 -2.38379 6.6537
RightShoulder  -4.96962e-017 0 -2.36833e-017
RightArm  -64.5206 -22.1938 51.1733
RightForeArm  41.0035 25.4577 3.23697
RightHand  -0.219694 -2.24089 -7.79374
LeftUpLeg  -31.1722 26.3458 -1.84713
LeftLeg  66.5606 7.70169 14.6468
LeftFoot  13.6225 -0.474044 4.12881
LeftToes  -31.2524 1.87998e-006 4.79886e-008
208
root  23.7051 34.5598 -34.2677 28.6175 -83.1181 -20.9403
RightUpLeg  -11.1765 1.63248 1.55134
RightLeg  8.46655 6.42698 0.538386
RightFoot  3.92863 0.000927271 0.473002
RightToes  -22.1201 -0.0935901 -0.193646
Spine  -0.986628 -1.87003 3.54663
Spine1  -1.95403 -3.61759 7.44767
HEad  -72.2008 22.687 2.63126
LeftShoulder1  -1.94126e-019 -3.10601e-018 -2.51263e-017
LeftArm  -6.24345 15.2914 -76.8733
LeftForeArm  33.5478 -46.9962 -9.61245
LeftHand  -0.464061 -2.1023 7.38737
RightShoulder  -4.96962e-017 0 -2.36833e-017
RightArm  -68.639 -22.4501 47.1676
RightForeArm  40.1343 31.0205 4.47606
RightHand  -0.305968 -1.74275 -9.56547
LeftUpLeg  -32.8536 27.5831 -1.7618
LeftLeg  60.955 9.58434 14.5122
LeftFoot  11.1186 -0.332106 3.5726
LeftToes  -28.8621 1.87998e-006 4.79886e-008
209
root  22.859 34.5744 -33.471 37.764 -85.2742 -29.6857
RightUpLeg  -9.19372 2.60154 0.260847
RightLeg  6.06957 7.3727 0.30832
RightFoot  4.22165 -0.00244619 0.562319
RightToes  -24.5172 -0.108046 -0.212113
Spine  -1.2208 -1.78114 3.68915
Spine1  -2.37945 -3.40552 7.65546
HEad  -71.8504 24.9402 1.62703
LeftShoulder1  -1.94126e-019 -3.10601e-018 -2.51263e-017
LeftArm  -8.42209 15.9442 -74.5405
LeftForeArm  34.0724 -52.7057 -12.0426
LeftHand  -0.495835 -1.54129 8.47379
RightShoulder  -4.96962e-017 0 -2.36833e-017
RightArm  -72.6813 -22.2812 43.1382
RightForeArm  39.8811 37.5815 6.09828
RightHand  -0.188186 -3.47738 -10.6906
LeftUpLeg  -33.5285 28.443 -0.734723
LeftLeg  52.9314 10.9921 12.4679
LeftFoot  8.14081 -0.168003 2.5221
LeftToes  -26.9236 1.87998e-006 4.79886e-008
210
root  22.0202 34.5234 -32.651 53.7591 -86.6233 -45.2165
RightUpLeg  -7.80313 4.61488 -0.964423
RightLeg  4.74442 6.67203 0.124947
RightFoot  4.05265 0.00072939 0.480044
RightToes  -26.246 -0.118943 -0.225047
Spine  -1.57796 -1.81372 3.92855
Spine1  -3.04697 -3.43426 8.03493
HEad  -71.2226 27.2501 0.922471
LeftShoulder1  -1.94126e-019 -3.10601e-018 -2.51263e-017
LeftArm  -10.3538 16.5939 -71.8012
LeftForeArm  36.5162 -58.1333 -14.9301
LeftHand  -0.524898 -1.32687 9.2297
RightShoulder  -4.96962e-017 0 -2.36833e-017
RightArm  -77.1765 -21.5676 39.0599
RightForeArm  39.3517 44.718 8.25322
RightHand  -0.229422 -2.98055 -10.5639
LeftUpLeg  -32.8422 27.8507 1.06681
LeftLeg  42.3935 11.1801 8.82643
LeftFoot  6.814 -0.0981645 1.81034
LeftToes  -25.2579 1.87998e-006 4.79886e-008
211
root  21.1605 34.4158 -31.7495 64.254 -87.1805 -55.6073
RightUpLeg  -6.75616 5.32992 -2.40581
RightLeg  5.09413 6.58165 0.163401
RightFoot  3.00009 0.00427947 0.338983
RightToes  -27.8868 -0.129643 -0.237014
Spine  -1.94194 -2.04861 4.16147
Spine1  -3.738 -3.87991 8.41489
HEad  -70.3497 29.2829 0.137454
LeftShoulder1  -1.94126e-019 -3.10601e-018 -2.51263e-017
LeftArm  -11.4863 16.5741 -68.6664
LeftForeArm  39.6368 -62.0422 -17.5669
LeftHand  -0.574716 -1.23319 10.2254
RightShoulder  -4.96962e-017 0 -2.36833e-017
RightArm  -81.218 -20.4565 34.7638
RightForeArm  39.1159 52.251 11.2211
RightHand  -0.168211 -3.89325 -12.0539
LeftUpLeg  -30.6674 24.9168 3.46119
LeftLeg  31.3458 11.0355 5.72534
LeftFoot  8.61013 -0.135235 1.95784
LeftToes  -26.4812 1.87998e-006 4.79886e-008
212
root  20.3251 34.26 -30.7814 69.5474 -87.6361 -60.9729
RightUpLeg  -6.83684 6.66902 -4.12561
RightLeg  8.21031 5.60027 0.444259
RightFoot  1.04893 0.00381277 0.0934923
RightToes  -30.6285 -0.148273 -0.25631
Spine  -2.24453 -2.25326 4.31774
Spine1  -4.30618 -4.29319 8.62649
HEad  -69.8377 30.7803 -0.576808
LeftShoulder1  -1.94126e-019 -3.10601e-018 -2.51263e-017
LeftArm  -12.042 15.6795 -65.096
LeftForeArm  42.6236 -64.3417 -19.385
LeftHand  -0.625646 -1.33161 10.961
RightShoulder  -4.96962e-017 0 -2.36833e-017
RightArm  -84.5073 -19.1536 30.2182
RightForeArm  42.4506 60.0672 15.4141
RightHand  -0.092526 -4.74847 -14.1971
LeftUpLeg  -28.2347 20.1659 5.92407
LeftLeg  23.345 13.0059 4.59433
LeftFoot  7.98597 -0.128342 2.00001
LeftToes  -27.9238 1.87998e-006 4.79886e-008
213
root  19.487 34.0926 -29.6729 72.2463 -89.0921 -64.2184
RightUpLeg  -8.01298 7.47453 -6.84574
RightLeg  14.1948 4.65322 0.8629
RightFoot  -1.82745 -0.010528 -0.147441
RightToes  -31.4767 -0.154221 -0.262097
Spine  -2.30588 -2.39679 4.03601
Spine1  -4.42269 -4.61446 8.05651
HEad  -69.9295 32.1463 -1.4344
LeftShoulder1  -1.94126e-019 -3.10601e-018 -2.51263e-017
LeftArm  -12.3378 14.2835 -60.8682
LeftForeArm  44.5783 -65.0679 -19.9026
LeftHand  -0.645263 -1.21688 11.486
RightShoulder  -4.96962e-017 0 -2.36833e-017
RightArm  -86.8111 -17.6092 25.6924
RightForeArm  50.1531 67.961 22.2835
RightHand  -0.0372327 -5.22549 -17.5658
LeftUpLeg  -25.9391 16.3365 6.50993
LeftLeg  19.8614 15.7562 4.50204
LeftFoot  7.49754 -0.136142 2.23914
LeftToes  -24.579 1.87998e-006 4.79886e-008
214
root  18.5984 33.8745 -28.4192 -124.405 -89.069 131.233
RightUpLeg  -9.59557 6.46106 -9.96181
RightLeg  22.0866 4.39358 1.4571
RightFoot  -3.60742 -0.0250411 -0.28171
RightToes  -35.4008 -0.182824 -0.287696
Spine  -2.08128 -2.55635 3.60213
Spine1  -3.97622 -4.96976 7.1987
HEad  -70.412 33.4979 -2.41433
LeftShoulder1  -1.94126e-019 -3.10601e-018 -2.51263e-017
LeftArm  -12.3916 12.9964 -56.036
LeftForeArm  45.446 -64.9569 -19.6667
LeftHand  -0.656965 -1.13263 11.8351
RightShoulder  -4.96962e-017 0 -2.36833e-017
RightArm  -87.6453 -15.611 20.7676
RightForeArm  63.3689 74.6994 33.9911
RightHand  -0.0249897 -5.30362 -20.3704
LeftUpLeg  -23.8782 16.0017 4.688
LeftLeg  20.0082 15.2522 4.40362
LeftFoot  12.3348 -0.364144 3.53046
LeftToes  -27.4874 1.87998e-006 4.79886e-008
215
root  17.7709 33.6918 -27.1091 -118.438 -87.621 124.167
RightUpLeg  -12.7328 4.51395 -13.1267
RightLeg  32.1641 3.80211 2.04821
RightFoot  -1.53752 -0.00839926 -0.110463
RightToes  -47.3348 -0.279565 -0.352698
Spine  -1.87817 -2.92031 3.37075
Spine1  -3.59111 -5.71281 6.76834
HEad  -71.3144 35.1627 -4.18769
LeftShoulder1  -1.94126e-019 -3.10601e-018 -2.51263e-017
LeftArm  -12.5248 12.5132 -51.3751
LeftForeArm  45.3054 -63.5526 -18.2692
LeftHand  -0.710409 -1.54518 12.053
RightShoulder  -4.96962e-017 0 -2.36833e-017
RightArm  -87.4306 -12.6633 15.2861
RightForeArm  86.4438 79.4143 53.7263
RightHand  -0.0123626 -5.35973 -24.3337
LeftUpLeg  -22.8653 17.4947 1.75796
LeftLeg  22.7756 13.5172 4.62252
LeftFoot  9.5723 -0.194052 2.47886
LeftToes  -18.513 1.87998e-006 4.79886e-008
216
root  17.0724 33.6617 -25.8449 -106.384 -85.9638 111.401
RightUpLeg  -17.8468 3.20268 -16.1212
RightLeg  43.7551 -0.69072 -0.612942
RightFoot  6.88544 0.038088 -0.0903934
RightToes  -62.9629 -0.422697 -0.405124
Spine  -1.74059 -3.40044 2.87012
Spine1  -3.36777 -6.71221 5.89906
HEad  -71.6799 36.42 -5.33301
LeftShoulder1  -1.94126e-019 -3.10601e-018 -2.51263e-017
LeftArm  -12.5271 12.5162 -46.9486
LeftForeArm  43.4198 -60.2999 -15.7459
LeftHand  -0.685586 -0.996446 12.5946
RightShoulder  -4.96962e-017 0 -2.36833e-017
RightArm  -86.8069 -11.0311 10.3806
RightForeArm  128.301 81.6056 91.132
RightHand  -0.0917757 -5.03112 -28.7294
LeftUpLeg  -22.0911 16.8712 -1.59082
LeftLeg  25.1644 14.1777 5.50241
LeftFoot  5.99466 -0.0796362 1.68237
LeftToes  -11.4976 1.87998e-006 4.79886e-008
